<?xml version="1.0" encoding="UTF-8" standalone="no"?>
<!DOCTYPE svg PUBLIC "-//W3C//DTD SVG 1.1//EN" "http://www.w3.org/Graphics/SVG/1.1/DTD/svg11.dtd">
<svg width="100%" height="100%" viewBox="0 0 1059 1089" version="1.1" xmlns="http://www.w3.org/2000/svg" xmlns:xlink="http://www.w3.org/1999/xlink" xml:space="preserve" xmlns:serif="http://www.serif.com/" style="fill-rule:evenodd;clip-rule:evenodd;stroke-linecap:round;stroke-linejoin:round;stroke-miterlimit:1.5;">
    <g transform="matrix(1,0,0,1,-1150,0)">
        <g id="Artboard2" transform="matrix(1,0,0,1,-0.495453,0)">
            <rect x="1150.5" y="0" width="1058.12" height="1088.35" style="fill:none;"/>
            <clipPath id="_clip1">
                <rect x="1150.5" y="0" width="1058.12" height="1088.35"/>
            </clipPath>
            <g clip-path="url(#_clip1)">
                <g transform="matrix(1,0,0,1,465.557,-1239.69)">
                    <rect x="685.434" y="1324.86" width="1058.12" height="334.11" style="fill:rgb(64,64,64);"/>
                </g>
                <g transform="matrix(1,0,0,1,360.006,-2503.67)">
                    <text x="1725.67px" y="2865.81px" style="font-family:'OCRA', monospace;font-size:50px;fill:rgb(246,246,246);">0</text>
                </g>
                <g transform="matrix(1,0,0,1,362.391,-2499.49)">
                    <text x="1629.15px" y="2861.63px" style="font-family:'OCRA', monospace;font-size:50px;fill:rgb(246,246,246);">9</text>
                </g>
                <g transform="matrix(1,0,0,1,359.185,-2502.28)">
                    <text x="1538.02px" y="2864.42px" style="font-family:'OCRA', monospace;font-size:50px;fill:rgb(246,246,246);">8</text>
                </g>
                <g transform="matrix(1,0,0,1,356.567,-2502.98)">
                    <text x="1446.51px" y="2865.12px" style="font-family:'OCRA', monospace;font-size:50px;fill:rgb(246,246,246);">7</text>
                </g>
                <g transform="matrix(1,0,0,1,360.435,-2504.96)">
                    <text x="1348.14px" y="2867.1px" style="font-family:'OCRA', monospace;font-size:50px;fill:rgb(246,246,246);">6</text>
                </g>
                <g transform="matrix(1,0,0,1,362.179,-2510.07)">
                    <text x="1252.55px" y="2872.21px" style="font-family:'OCRA', monospace;font-size:50px;fill:rgb(246,246,246);">5</text>
                </g>
                <g transform="matrix(1,0,0,1,370.164,-2512.86)">
                    <text x="1150.56px" y="2875px" style="font-family:'OCRA', monospace;font-size:50px;fill:rgb(246,246,246);">4</text>
                </g>
                <g transform="matrix(-1,-1.22465e-16,1.22465e-16,-1,2085.96,3356.52)">
                    <g transform="matrix(1.15099,0,0,1.15099,-83.135,1380.35)">
                        <rect x="772.676" y="1456.07" width="40.716" height="46.141" style="fill:rgb(204,204,204);stroke:rgb(205,167,146);stroke-width:0.87px;"/>
                    </g>
                    <g transform="matrix(1.15099,0,0,0.93091,-83.135,1753.9)">
                        <rect x="772.676" y="1456.07" width="40.716" height="46.141" style="fill:rgb(246,246,246);"/>
                    </g>
                </g>
                <g transform="matrix(1,-2.44929e-16,2.44929e-16,1,426.689,-2852.08)">
                    <g transform="matrix(1.15099,0,0,1.15099,10.7121,1380.35)">
                        <rect x="772.676" y="1456.07" width="40.716" height="46.141" style="fill:rgb(204,204,204);stroke:rgb(205,167,146);stroke-width:0.87px;"/>
                    </g>
                    <g transform="matrix(1.15099,0,0,0.93091,10.7121,1753.9)">
                        <rect x="772.676" y="1456.07" width="40.716" height="46.141" style="fill:rgb(246,246,246);"/>
                    </g>
                </g>
                <g transform="matrix(-1,1.22465e-16,-1.22465e-16,-1,2462.64,3356.52)">
                    <g transform="matrix(1.15099,0,0,1.15099,105.204,1380.35)">
                        <rect x="772.676" y="1456.07" width="40.716" height="46.141" style="fill:rgb(204,204,204);stroke:rgb(205,167,146);stroke-width:0.87px;"/>
                    </g>
                    <g transform="matrix(1.15099,0,0,0.93091,105.204,1753.9)">
                        <rect x="772.676" y="1456.07" width="40.716" height="46.141" style="fill:rgb(246,246,246);"/>
                    </g>
                </g>
                <g transform="matrix(1,0,0,1,426.689,-2852.08)">
                    <g transform="matrix(1.15099,0,0,1.15099,199.339,1380.35)">
                        <rect x="772.676" y="1456.07" width="40.716" height="46.141" style="fill:rgb(204,204,204);stroke:rgb(205,167,146);stroke-width:0.87px;"/>
                    </g>
                    <g transform="matrix(1.15099,0,0,0.93091,199.339,1753.9)">
                        <rect x="772.676" y="1456.07" width="40.716" height="46.141" style="fill:rgb(246,246,246);"/>
                    </g>
                </g>
                <g transform="matrix(-1,1.22465e-16,-1.22465e-16,-1,2462.47,3356.52)">
                    <g transform="matrix(1.15099,0,0,1.15099,-83.135,1380.35)">
                        <rect x="772.676" y="1456.07" width="40.716" height="46.141" style="fill:rgb(204,204,204);stroke:rgb(205,167,146);stroke-width:0.87px;"/>
                    </g>
                    <g transform="matrix(1.15099,0,0,0.93091,-83.135,1753.9)">
                        <rect x="772.676" y="1456.07" width="40.716" height="46.141" style="fill:rgb(246,246,246);"/>
                    </g>
                </g>
                <g transform="matrix(-1,-1.22465e-16,1.22465e-16,-1,2650.16,3356.52)">
                    <g transform="matrix(1.15099,0,0,1.15099,10.7121,1380.35)">
                        <rect x="772.676" y="1456.07" width="40.716" height="46.141" style="fill:rgb(204,204,204);stroke:rgb(205,167,146);stroke-width:0.87px;"/>
                    </g>
                    <g transform="matrix(1.15099,0,0,0.93091,10.7121,1753.9)">
                        <rect x="772.676" y="1456.07" width="40.716" height="46.141" style="fill:rgb(246,246,246);"/>
                    </g>
                </g>
                <g transform="matrix(1,0,0,1,803.197,-2852.08)">
                    <g transform="matrix(1.15099,0,0,1.15099,105.204,1380.35)">
                        <rect x="772.676" y="1456.07" width="40.716" height="46.141" style="fill:rgb(204,204,204);stroke:rgb(205,167,146);stroke-width:0.87px;"/>
                    </g>
                    <g transform="matrix(1.15099,0,0,0.93091,105.204,1753.9)">
                        <rect x="772.676" y="1456.07" width="40.716" height="46.141" style="fill:rgb(246,246,246);"/>
                    </g>
                </g>
                <g transform="matrix(1,0,0,1,803.197,-2852.08)">
                    <g transform="matrix(1.15099,0,0,1.15099,199.339,1380.35)">
                        <rect x="772.676" y="1456.07" width="40.716" height="46.141" style="fill:rgb(204,204,204);stroke:rgb(205,167,146);stroke-width:0.87px;"/>
                    </g>
                    <g transform="matrix(1.15099,0,0,0.93091,199.339,1753.9)">
                        <rect x="772.676" y="1456.07" width="40.716" height="46.141" style="fill:rgb(246,246,246);"/>
                    </g>
                </g>
                <g transform="matrix(1,0,0,1,991.668,-2852.08)">
                    <g transform="matrix(1.15099,0,0,1.15099,105.204,1380.35)">
                        <rect x="772.676" y="1456.07" width="40.716" height="46.141" style="fill:rgb(204,204,204);stroke:rgb(205,167,146);stroke-width:0.87px;"/>
                    </g>
                    <g transform="matrix(1.15099,0,0,0.93091,105.204,1753.9)">
                        <rect x="772.676" y="1456.07" width="40.716" height="46.141" style="fill:rgb(246,246,246);"/>
                    </g>
                </g>
                <g transform="matrix(-1,-1.22465e-16,1.22465e-16,-1,3215.89,3356.52)">
                    <g transform="matrix(1.15099,0,0,1.15099,199.339,1380.35)">
                        <rect x="772.676" y="1456.07" width="40.716" height="46.141" style="fill:rgb(204,204,204);stroke:rgb(205,167,146);stroke-width:0.87px;"/>
                    </g>
                    <g transform="matrix(1.15099,0,0,0.93091,199.339,1753.9)">
                        <rect x="772.676" y="1456.07" width="40.716" height="46.141" style="fill:rgb(246,246,246);"/>
                    </g>
                </g>
                <g transform="matrix(1,0,0,1,364.165,-2523.2)">
                    <text x="874.06px" y="2885.34px" style="font-family:'OCRA', monospace;font-size:50px;fill:rgb(246,246,246);">1</text>
                </g>
                <g transform="matrix(1,0,0,1,325.48,-2259.56)">
                    <text x="942.988px" y="2423.66px" style="font-family:'OCRA', monospace;font-size:50px;fill:rgb(246,246,246);">ON</text>
                </g>
                <g transform="matrix(1,0,0,1,458.012,-2523.2)">
                    <text x="874.06px" y="2885.34px" style="font-family:'OCRA', monospace;font-size:50px;fill:rgb(246,246,246);">2</text>
                </g>
                <g transform="matrix(1,0,0,1,364.201,-2506.48)">
                    <text x="1062.36px" y="2868.62px" style="font-family:'OCRA', monospace;font-size:50px;fill:rgb(246,246,246);">3</text>
                </g>
                <g transform="matrix(1,0,0,1,465.557,-654.47)">
                    <rect x="685.434" y="1324.86" width="1058.12" height="334.11" style="fill:rgb(64,64,64);"/>
                </g>
                <g transform="matrix(1,0,0,1,360.006,-1918.82)">
                    <text x="1725.67px" y="2865.81px" style="font-family:'OCRA', monospace;font-size:50px;fill:rgb(246,246,246);">0</text>
                </g>
                <g transform="matrix(1,0,0,1,362.391,-1914.63)">
                    <text x="1629.15px" y="2861.63px" style="font-family:'OCRA', monospace;font-size:50px;fill:rgb(246,246,246);">9</text>
                </g>
                <g transform="matrix(1,0,0,1,359.185,-1917.43)">
                    <text x="1538.02px" y="2864.42px" style="font-family:'OCRA', monospace;font-size:50px;fill:rgb(246,246,246);">8</text>
                </g>
                <g transform="matrix(1,0,0,1,356.567,-1918.13)">
                    <text x="1446.51px" y="2865.12px" style="font-family:'OCRA', monospace;font-size:50px;fill:rgb(246,246,246);">7</text>
                </g>
                <g transform="matrix(1,0,0,1,360.435,-1920.1)">
                    <text x="1348.14px" y="2867.1px" style="font-family:'OCRA', monospace;font-size:50px;fill:rgb(246,246,246);">6</text>
                </g>
                <g transform="matrix(1,0,0,1,362.179,-1925.21)">
                    <text x="1252.55px" y="2872.21px" style="font-family:'OCRA', monospace;font-size:50px;fill:rgb(246,246,246);">5</text>
                </g>
                <g transform="matrix(1,0,0,1,370.164,-1928.01)">
                    <text x="1150.56px" y="2875px" style="font-family:'OCRA', monospace;font-size:50px;fill:rgb(246,246,246);">4</text>
                </g>
                <g transform="matrix(1,0,0,1,426.689,-2266.86)">
                    <g transform="matrix(1.15099,0,0,1.15099,-83.135,1380.35)">
                        <rect x="772.676" y="1456.07" width="40.716" height="46.141" style="fill:rgb(204,204,204);stroke:rgb(205,167,146);stroke-width:0.87px;"/>
                    </g>
                    <g transform="matrix(1.15099,0,0,0.93091,-83.135,1753.9)">
                        <rect x="772.676" y="1456.07" width="40.716" height="46.141" style="fill:rgb(246,246,246);"/>
                    </g>
                </g>
                <g transform="matrix(1,-2.44929e-16,2.44929e-16,1,426.689,-2266.86)">
                    <g transform="matrix(1.15099,0,0,1.15099,10.7121,1380.35)">
                        <rect x="772.676" y="1456.07" width="40.716" height="46.141" style="fill:rgb(204,204,204);stroke:rgb(205,167,146);stroke-width:0.87px;"/>
                    </g>
                    <g transform="matrix(1.15099,0,0,0.93091,10.7121,1753.9)">
                        <rect x="772.676" y="1456.07" width="40.716" height="46.141" style="fill:rgb(246,246,246);"/>
                    </g>
                </g>
                <g transform="matrix(1,0,0,1,426.689,-2266.86)">
                    <g transform="matrix(1.15099,0,0,1.15099,105.204,1380.35)">
                        <rect x="772.676" y="1456.07" width="40.716" height="46.141" style="fill:rgb(204,204,204);stroke:rgb(205,167,146);stroke-width:0.87px;"/>
                    </g>
                    <g transform="matrix(1.15099,0,0,0.93091,105.204,1753.9)">
                        <rect x="772.676" y="1456.07" width="40.716" height="46.141" style="fill:rgb(246,246,246);"/>
                    </g>
                </g>
                <g transform="matrix(-1,-1.22465e-16,1.22465e-16,-1,2650.91,3941.74)">
                    <g transform="matrix(1.15099,0,0,1.15099,199.339,1380.35)">
                        <rect x="772.676" y="1456.07" width="40.716" height="46.141" style="fill:rgb(204,204,204);stroke:rgb(205,167,146);stroke-width:0.87px;"/>
                    </g>
                    <g transform="matrix(1.15099,0,0,0.93091,199.339,1753.9)">
                        <rect x="772.676" y="1456.07" width="40.716" height="46.141" style="fill:rgb(246,246,246);"/>
                    </g>
                </g>
                <g transform="matrix(1,-2.44929e-16,2.44929e-16,1,803.197,-2266.86)">
                    <g transform="matrix(1.15099,0,0,1.15099,-83.135,1380.35)">
                        <rect x="772.676" y="1456.07" width="40.716" height="46.141" style="fill:rgb(204,204,204);stroke:rgb(205,167,146);stroke-width:0.87px;"/>
                    </g>
                    <g transform="matrix(1.15099,0,0,0.93091,-83.135,1753.9)">
                        <rect x="772.676" y="1456.07" width="40.716" height="46.141" style="fill:rgb(246,246,246);"/>
                    </g>
                </g>
                <g transform="matrix(-1,-1.22465e-16,1.22465e-16,-1,2650.16,3941.74)">
                    <g transform="matrix(1.15099,0,0,1.15099,10.7121,1380.35)">
                        <rect x="772.676" y="1456.07" width="40.716" height="46.141" style="fill:rgb(204,204,204);stroke:rgb(205,167,146);stroke-width:0.87px;"/>
                    </g>
                    <g transform="matrix(1.15099,0,0,0.93091,10.7121,1753.9)">
                        <rect x="772.676" y="1456.07" width="40.716" height="46.141" style="fill:rgb(246,246,246);"/>
                    </g>
                </g>
                <g transform="matrix(1,0,0,1,803.197,-2266.86)">
                    <g transform="matrix(1.15099,0,0,1.15099,105.204,1380.35)">
                        <rect x="772.676" y="1456.07" width="40.716" height="46.141" style="fill:rgb(204,204,204);stroke:rgb(205,167,146);stroke-width:0.87px;"/>
                    </g>
                    <g transform="matrix(1.15099,0,0,0.93091,105.204,1753.9)">
                        <rect x="772.676" y="1456.07" width="40.716" height="46.141" style="fill:rgb(246,246,246);"/>
                    </g>
                </g>
                <g transform="matrix(-1,-1.22465e-16,1.22465e-16,-1,3027.42,3941.74)">
                    <g transform="matrix(1.15099,0,0,1.15099,199.339,1380.35)">
                        <rect x="772.676" y="1456.07" width="40.716" height="46.141" style="fill:rgb(204,204,204);stroke:rgb(205,167,146);stroke-width:0.87px;"/>
                    </g>
                    <g transform="matrix(1.15099,0,0,0.93091,199.339,1753.9)">
                        <rect x="772.676" y="1456.07" width="40.716" height="46.141" style="fill:rgb(246,246,246);"/>
                    </g>
                </g>
                <g transform="matrix(1,0,0,1,991.668,-2266.86)">
                    <g transform="matrix(1.15099,0,0,1.15099,105.204,1380.35)">
                        <rect x="772.676" y="1456.07" width="40.716" height="46.141" style="fill:rgb(204,204,204);stroke:rgb(205,167,146);stroke-width:0.87px;"/>
                    </g>
                    <g transform="matrix(1.15099,0,0,0.93091,105.204,1753.9)">
                        <rect x="772.676" y="1456.07" width="40.716" height="46.141" style="fill:rgb(246,246,246);"/>
                    </g>
                </g>
                <g transform="matrix(1,2.44929e-16,-2.44929e-16,1,991.668,-2266.86)">
                    <g transform="matrix(1.15099,0,0,1.15099,199.339,1380.35)">
                        <rect x="772.676" y="1456.07" width="40.716" height="46.141" style="fill:rgb(204,204,204);stroke:rgb(205,167,146);stroke-width:0.87px;"/>
                    </g>
                    <g transform="matrix(1.15099,0,0,0.93091,199.339,1753.9)">
                        <rect x="772.676" y="1456.07" width="40.716" height="46.141" style="fill:rgb(246,246,246);"/>
                    </g>
                </g>
                <g transform="matrix(1,0,0,1,364.165,-1938.35)">
                    <text x="874.06px" y="2885.34px" style="font-family:'OCRA', monospace;font-size:50px;fill:rgb(246,246,246);">1</text>
                </g>
                <g transform="matrix(1,0,0,1,325.48,-1674.34)">
                    <text x="942.988px" y="2423.66px" style="font-family:'OCRA', monospace;font-size:50px;fill:rgb(246,246,246);">ON</text>
                </g>
                <g transform="matrix(1,0,0,1,458.012,-1938.35)">
                    <text x="874.06px" y="2885.34px" style="font-family:'OCRA', monospace;font-size:50px;fill:rgb(246,246,246);">2</text>
                </g>
                <g transform="matrix(1,0,0,1,364.201,-1921.63)">
                    <text x="1062.36px" y="2868.62px" style="font-family:'OCRA', monospace;font-size:50px;fill:rgb(246,246,246);">3</text>
                </g>
                <g transform="matrix(1,0,0,1,1029.11,-2240)">
                    <g transform="matrix(1,0,0,1,-569.79,1572.95)">
                        <path d="M767.43,1671.55L826.574,1671.55L826.574,1712.74L814.582,1737.37L814.582,1753.94L779.245,1753.94L779.245,1737.37L767.43,1713.49L767.43,1671.55Z" style="fill:rgb(196,173,82);"/>
                    </g>
                    <g transform="matrix(1,0,0,1,-475.628,1572.95)">
                        <path d="M767.43,1671.55L826.574,1671.55L826.574,1712.74L814.582,1737.37L814.582,1753.94L779.245,1753.94L779.245,1737.37L767.43,1713.49L767.43,1671.55Z" style="fill:rgb(196,173,82);"/>
                    </g>
                    <g transform="matrix(1,0,0,1,-381.467,1572.95)">
                        <path d="M767.43,1671.55L826.574,1671.55L826.574,1712.74L814.582,1737.37L814.582,1753.94L779.245,1753.94L779.245,1737.37L767.43,1713.49L767.43,1671.55Z" style="fill:rgb(196,173,82);"/>
                    </g>
                    <g transform="matrix(1,0,0,1,-287.306,1572.95)">
                        <path d="M767.43,1671.55L826.574,1671.55L826.574,1712.74L814.582,1737.37L814.582,1753.94L779.245,1753.94L779.245,1737.37L767.43,1713.49L767.43,1671.55Z" style="fill:rgb(196,173,82);"/>
                    </g>
                    <g transform="matrix(1,0,0,1,-193.144,1572.95)">
                        <path d="M767.43,1671.55L826.574,1671.55L826.574,1712.74L814.582,1737.37L814.582,1753.94L779.245,1753.94L779.245,1737.37L767.43,1713.49L767.43,1671.55Z" style="fill:rgb(196,173,82);"/>
                    </g>
                    <g transform="matrix(1,0,0,1,-98.9829,1572.95)">
                        <path d="M767.43,1671.55L826.574,1671.55L826.574,1712.74L814.582,1737.37L814.582,1753.94L779.245,1753.94L779.245,1737.37L767.43,1713.49L767.43,1671.55Z" style="fill:rgb(196,173,82);"/>
                    </g>
                    <g transform="matrix(1,0,0,1,-4.82152,1572.95)">
                        <path d="M767.43,1671.55L826.574,1671.55L826.574,1712.74L814.582,1737.37L814.582,1753.94L779.245,1753.94L779.245,1737.37L767.43,1713.49L767.43,1671.55Z" style="fill:rgb(196,173,82);"/>
                    </g>
                    <g transform="matrix(1,0,0,1,89.3398,1572.95)">
                        <path d="M767.43,1671.55L826.574,1671.55L826.574,1712.74L814.582,1737.37L814.582,1753.94L779.245,1753.94L779.245,1737.37L767.43,1713.49L767.43,1671.55Z" style="fill:rgb(196,173,82);"/>
                    </g>
                    <g transform="matrix(1,0,0,1,183.501,1572.95)">
                        <path d="M767.43,1671.55L826.574,1671.55L826.574,1712.74L814.582,1737.37L814.582,1753.94L779.245,1753.94L779.245,1737.37L767.43,1713.49L767.43,1671.55Z" style="fill:rgb(196,173,82);"/>
                    </g>
                    <g transform="matrix(1,0,0,1,277.662,1572.95)">
                        <path d="M767.43,1671.55L826.574,1671.55L826.574,1712.74L814.582,1737.37L814.582,1753.94L779.245,1753.94L779.245,1737.37L767.43,1713.49L767.43,1671.55Z" style="fill:rgb(196,173,82);"/>
                    </g>
                </g>
                <g transform="matrix(-1,1.22465e-16,-1.22465e-16,-1,2330.99,3916.16)">
                    <g transform="matrix(1,0,0,1,-569.79,1572.95)">
                        <path d="M767.43,1671.55L826.574,1671.55L826.574,1712.74L814.582,1737.37L814.582,1753.94L779.245,1753.94L779.245,1737.37L767.43,1713.49L767.43,1671.55Z" style="fill:rgb(196,173,82);"/>
                    </g>
                    <g transform="matrix(1,0,0,1,-475.628,1572.95)">
                        <path d="M767.43,1671.55L826.574,1671.55L826.574,1712.74L814.582,1737.37L814.582,1753.94L779.245,1753.94L779.245,1737.37L767.43,1713.49L767.43,1671.55Z" style="fill:rgb(196,173,82);"/>
                    </g>
                    <g transform="matrix(1,0,0,1,-381.467,1572.95)">
                        <path d="M767.43,1671.55L826.574,1671.55L826.574,1712.74L814.582,1737.37L814.582,1753.94L779.245,1753.94L779.245,1737.37L767.43,1713.49L767.43,1671.55Z" style="fill:rgb(196,173,82);"/>
                    </g>
                    <g transform="matrix(1,0,0,1,-287.306,1572.95)">
                        <path d="M767.43,1671.55L826.574,1671.55L826.574,1712.74L814.582,1737.37L814.582,1753.94L779.245,1753.94L779.245,1737.37L767.43,1713.49L767.43,1671.55Z" style="fill:rgb(196,173,82);"/>
                    </g>
                    <g transform="matrix(1,0,0,1,-193.144,1572.95)">
                        <path d="M767.43,1671.55L826.574,1671.55L826.574,1712.74L814.582,1737.37L814.582,1753.94L779.245,1753.94L779.245,1737.37L767.43,1713.49L767.43,1671.55Z" style="fill:rgb(196,173,82);"/>
                    </g>
                    <g transform="matrix(1,0,0,1,-98.9829,1572.95)">
                        <path d="M767.43,1671.55L826.574,1671.55L826.574,1712.74L814.582,1737.37L814.582,1753.94L779.245,1753.94L779.245,1737.37L767.43,1713.49L767.43,1671.55Z" style="fill:rgb(196,173,82);"/>
                    </g>
                    <g transform="matrix(1,0,0,1,-4.82152,1572.95)">
                        <path d="M767.43,1671.55L826.574,1671.55L826.574,1712.74L814.582,1737.37L814.582,1753.94L779.245,1753.94L779.245,1737.37L767.43,1713.49L767.43,1671.55Z" style="fill:rgb(196,173,82);"/>
                    </g>
                    <g transform="matrix(1,0,0,1,89.3398,1572.95)">
                        <path d="M767.43,1671.55L826.574,1671.55L826.574,1712.74L814.582,1737.37L814.582,1753.94L779.245,1753.94L779.245,1737.37L767.43,1713.49L767.43,1671.55Z" style="fill:rgb(196,173,82);"/>
                    </g>
                    <g transform="matrix(1,0,0,1,183.501,1572.95)">
                        <path d="M767.43,1671.55L826.574,1671.55L826.574,1712.74L814.582,1737.37L814.582,1753.94L779.245,1753.94L779.245,1737.37L767.43,1713.49L767.43,1671.55Z" style="fill:rgb(196,173,82);"/>
                    </g>
                    <g transform="matrix(1,0,0,1,277.662,1572.95)">
                        <path d="M767.43,1671.55L826.574,1671.55L826.574,1712.74L814.582,1737.37L814.582,1753.94L779.245,1753.94L779.245,1737.37L767.43,1713.49L767.43,1671.55Z" style="fill:rgb(196,173,82);"/>
                    </g>
                </g>
                <g transform="matrix(-1,1.22465e-16,-1.22465e-16,-1,2330.99,3916.16)">
                    <g transform="matrix(1,0,0,1,-569.79,1572.95)">
                        <path d="M767.43,1671.55L826.574,1671.55L826.574,1712.74L814.582,1737.37L814.582,1753.94L779.245,1753.94L779.245,1737.37L767.43,1713.49L767.43,1671.55Z" style="fill:rgb(196,173,82);"/>
                    </g>
                    <g transform="matrix(1,0,0,1,-475.628,1572.95)">
                        <path d="M767.43,1671.55L826.574,1671.55L826.574,1712.74L814.582,1737.37L814.582,1753.94L779.245,1753.94L779.245,1737.37L767.43,1713.49L767.43,1671.55Z" style="fill:rgb(196,173,82);"/>
                    </g>
                    <g transform="matrix(1,0,0,1,-381.467,1572.95)">
                        <path d="M767.43,1671.55L826.574,1671.55L826.574,1712.74L814.582,1737.37L814.582,1753.94L779.245,1753.94L779.245,1737.37L767.43,1713.49L767.43,1671.55Z" style="fill:rgb(196,173,82);"/>
                    </g>
                    <g transform="matrix(1,0,0,1,-287.306,1572.95)">
                        <path d="M767.43,1671.55L826.574,1671.55L826.574,1712.74L814.582,1737.37L814.582,1753.94L779.245,1753.94L779.245,1737.37L767.43,1713.49L767.43,1671.55Z" style="fill:rgb(196,173,82);"/>
                    </g>
                    <g transform="matrix(1,0,0,1,-193.144,1572.95)">
                        <path d="M767.43,1671.55L826.574,1671.55L826.574,1712.74L814.582,1737.37L814.582,1753.94L779.245,1753.94L779.245,1737.37L767.43,1713.49L767.43,1671.55Z" style="fill:rgb(196,173,82);"/>
                    </g>
                    <g transform="matrix(1,0,0,1,-98.9829,1572.95)">
                        <path d="M767.43,1671.55L826.574,1671.55L826.574,1712.74L814.582,1737.37L814.582,1753.94L779.245,1753.94L779.245,1737.37L767.43,1713.49L767.43,1671.55Z" style="fill:rgb(196,173,82);"/>
                    </g>
                    <g transform="matrix(1,0,0,1,-4.82152,1572.95)">
                        <path d="M767.43,1671.55L826.574,1671.55L826.574,1712.74L814.582,1737.37L814.582,1753.94L779.245,1753.94L779.245,1737.37L767.43,1713.49L767.43,1671.55Z" style="fill:rgb(196,173,82);"/>
                    </g>
                    <g transform="matrix(1,0,0,1,89.3398,1572.95)">
                        <path d="M767.43,1671.55L826.574,1671.55L826.574,1712.74L814.582,1737.37L814.582,1753.94L779.245,1753.94L779.245,1737.37L767.43,1713.49L767.43,1671.55Z" style="fill:rgb(196,173,82);"/>
                    </g>
                    <g transform="matrix(1,0,0,1,183.501,1572.95)">
                        <path d="M767.43,1671.55L826.574,1671.55L826.574,1712.74L814.582,1737.37L814.582,1753.94L779.245,1753.94L779.245,1737.37L767.43,1713.49L767.43,1671.55Z" style="fill:rgb(196,173,82);"/>
                    </g>
                    <g transform="matrix(1,0,0,1,277.662,1572.95)">
                        <path d="M767.43,1671.55L826.574,1671.55L826.574,1712.74L814.582,1737.37L814.582,1753.94L779.245,1753.94L779.245,1737.37L767.43,1713.49L767.43,1671.55Z" style="fill:rgb(196,173,82);"/>
                    </g>
                </g>
                <g transform="matrix(1,0,0,1,1029.11,-2825.22)">
                    <g transform="matrix(1,0,0,1,-569.79,1572.95)">
                        <path d="M767.43,1671.55L826.574,1671.55L826.574,1712.74L814.582,1737.37L814.582,1753.94L779.245,1753.94L779.245,1737.37L767.43,1713.49L767.43,1671.55Z" style="fill:rgb(196,173,82);"/>
                    </g>
                    <g transform="matrix(1,0,0,1,-475.628,1572.95)">
                        <path d="M767.43,1671.55L826.574,1671.55L826.574,1712.74L814.582,1737.37L814.582,1753.94L779.245,1753.94L779.245,1737.37L767.43,1713.49L767.43,1671.55Z" style="fill:rgb(196,173,82);"/>
                    </g>
                    <g transform="matrix(1,0,0,1,-381.467,1572.95)">
                        <path d="M767.43,1671.55L826.574,1671.55L826.574,1712.74L814.582,1737.37L814.582,1753.94L779.245,1753.94L779.245,1737.37L767.43,1713.49L767.43,1671.55Z" style="fill:rgb(196,173,82);"/>
                    </g>
                    <g transform="matrix(1,0,0,1,-287.306,1572.95)">
                        <path d="M767.43,1671.55L826.574,1671.55L826.574,1712.74L814.582,1737.37L814.582,1753.94L779.245,1753.94L779.245,1737.37L767.43,1713.49L767.43,1671.55Z" style="fill:rgb(196,173,82);"/>
                    </g>
                    <g transform="matrix(1,0,0,1,-193.144,1572.95)">
                        <path d="M767.43,1671.55L826.574,1671.55L826.574,1712.74L814.582,1737.37L814.582,1753.94L779.245,1753.94L779.245,1737.37L767.43,1713.49L767.43,1671.55Z" style="fill:rgb(196,173,82);"/>
                    </g>
                    <g transform="matrix(1,0,0,1,-98.9829,1572.95)">
                        <path d="M767.43,1671.55L826.574,1671.55L826.574,1712.74L814.582,1737.37L814.582,1753.94L779.245,1753.94L779.245,1737.37L767.43,1713.49L767.43,1671.55Z" style="fill:rgb(196,173,82);"/>
                    </g>
                    <g transform="matrix(1,0,0,1,-4.82152,1572.95)">
                        <path d="M767.43,1671.55L826.574,1671.55L826.574,1712.74L814.582,1737.37L814.582,1753.94L779.245,1753.94L779.245,1737.37L767.43,1713.49L767.43,1671.55Z" style="fill:rgb(196,173,82);"/>
                    </g>
                    <g transform="matrix(1,0,0,1,89.3398,1572.95)">
                        <path d="M767.43,1671.55L826.574,1671.55L826.574,1712.74L814.582,1737.37L814.582,1753.94L779.245,1753.94L779.245,1737.37L767.43,1713.49L767.43,1671.55Z" style="fill:rgb(196,173,82);"/>
                    </g>
                    <g transform="matrix(1,0,0,1,183.501,1572.95)">
                        <path d="M767.43,1671.55L826.574,1671.55L826.574,1712.74L814.582,1737.37L814.582,1753.94L779.245,1753.94L779.245,1737.37L767.43,1713.49L767.43,1671.55Z" style="fill:rgb(196,173,82);"/>
                    </g>
                    <g transform="matrix(1,0,0,1,277.662,1572.95)">
                        <path d="M767.43,1671.55L826.574,1671.55L826.574,1712.74L814.582,1737.37L814.582,1753.94L779.245,1753.94L779.245,1737.37L767.43,1713.49L767.43,1671.55Z" style="fill:rgb(196,173,82);"/>
                    </g>
                </g>
                <g transform="matrix(-1,1.22465e-16,-1.22465e-16,-1,2330.99,3329.66)">
                    <g transform="matrix(1,0,0,1,-569.79,1572.95)">
                        <path d="M767.43,1671.55L826.574,1671.55L826.574,1712.74L814.582,1737.37L814.582,1753.94L779.245,1753.94L779.245,1737.37L767.43,1713.49L767.43,1671.55Z" style="fill:rgb(196,173,82);"/>
                    </g>
                    <g transform="matrix(1,0,0,1,-475.628,1572.95)">
                        <path d="M767.43,1671.55L826.574,1671.55L826.574,1712.74L814.582,1737.37L814.582,1753.94L779.245,1753.94L779.245,1737.37L767.43,1713.49L767.43,1671.55Z" style="fill:rgb(196,173,82);"/>
                    </g>
                    <g transform="matrix(1,0,0,1,-381.467,1572.95)">
                        <path d="M767.43,1671.55L826.574,1671.55L826.574,1712.74L814.582,1737.37L814.582,1753.94L779.245,1753.94L779.245,1737.37L767.43,1713.49L767.43,1671.55Z" style="fill:rgb(196,173,82);"/>
                    </g>
                    <g transform="matrix(1,0,0,1,-287.306,1572.95)">
                        <path d="M767.43,1671.55L826.574,1671.55L826.574,1712.74L814.582,1737.37L814.582,1753.94L779.245,1753.94L779.245,1737.37L767.43,1713.49L767.43,1671.55Z" style="fill:rgb(196,173,82);"/>
                    </g>
                    <g transform="matrix(1,0,0,1,-193.144,1572.95)">
                        <path d="M767.43,1671.55L826.574,1671.55L826.574,1712.74L814.582,1737.37L814.582,1753.94L779.245,1753.94L779.245,1737.37L767.43,1713.49L767.43,1671.55Z" style="fill:rgb(196,173,82);"/>
                    </g>
                    <g transform="matrix(1,0,0,1,-98.9829,1572.95)">
                        <path d="M767.43,1671.55L826.574,1671.55L826.574,1712.74L814.582,1737.37L814.582,1753.94L779.245,1753.94L779.245,1737.37L767.43,1713.49L767.43,1671.55Z" style="fill:rgb(196,173,82);"/>
                    </g>
                    <g transform="matrix(1,0,0,1,-4.82152,1572.95)">
                        <path d="M767.43,1671.55L826.574,1671.55L826.574,1712.74L814.582,1737.37L814.582,1753.94L779.245,1753.94L779.245,1737.37L767.43,1713.49L767.43,1671.55Z" style="fill:rgb(196,173,82);"/>
                    </g>
                    <g transform="matrix(1,0,0,1,89.3398,1572.95)">
                        <path d="M767.43,1671.55L826.574,1671.55L826.574,1712.74L814.582,1737.37L814.582,1753.94L779.245,1753.94L779.245,1737.37L767.43,1713.49L767.43,1671.55Z" style="fill:rgb(196,173,82);"/>
                    </g>
                    <g transform="matrix(1,0,0,1,183.501,1572.95)">
                        <path d="M767.43,1671.55L826.574,1671.55L826.574,1712.74L814.582,1737.37L814.582,1753.94L779.245,1753.94L779.245,1737.37L767.43,1713.49L767.43,1671.55Z" style="fill:rgb(196,173,82);"/>
                    </g>
                    <g transform="matrix(1,0,0,1,277.662,1572.95)">
                        <path d="M767.43,1671.55L826.574,1671.55L826.574,1712.74L814.582,1737.37L814.582,1753.94L779.245,1753.94L779.245,1737.37L767.43,1713.49L767.43,1671.55Z" style="fill:rgb(196,173,82);"/>
                    </g>
                </g>
            </g>
        </g>
    </g>
</svg>
