<?xml version="1.0" encoding="UTF-8" standalone="no"?>
<!DOCTYPE svg PUBLIC "-//W3C//DTD SVG 1.1//EN" "http://www.w3.org/Graphics/SVG/1.1/DTD/svg11.dtd">
<svg width="100%" height="100%" viewBox="0 0 1059 1089" version="1.1" xmlns="http://www.w3.org/2000/svg" xmlns:xlink="http://www.w3.org/1999/xlink" xml:space="preserve" xmlns:serif="http://www.serif.com/" style="fill-rule:evenodd;clip-rule:evenodd;stroke-linecap:round;stroke-linejoin:round;stroke-miterlimit:1.5;">
    <g id="Artboard1" transform="matrix(1,0,0,1,-121.879,-2240.88)">
        <rect x="121.879" y="2240.88" width="1058.12" height="1088.35" style="fill:none;"/>
        <clipPath id="_clip1">
            <rect x="121.879" y="2240.88" width="1058.12" height="1088.35"/>
        </clipPath>
        <g clip-path="url(#_clip1)">
            <g transform="matrix(1,0,0,1,-562.677,1001.19)">
                <rect x="685.434" y="1324.86" width="1058.12" height="334.11" style="fill:rgb(64,64,64);"/>
            </g>
            <g transform="matrix(1,0,0,1,-668.228,-262.793)">
                <text x="1725.67px" y="2865.81px" style="font-family:'OCRA', monospace;font-size:50px;fill:rgb(246,246,246);">0</text>
            </g>
            <g transform="matrix(1,0,0,1,-665.843,-258.608)">
                <text x="1629.15px" y="2861.63px" style="font-family:'OCRA', monospace;font-size:50px;fill:rgb(246,246,246);">9</text>
            </g>
            <g transform="matrix(1,0,0,1,-669.049,-261.403)">
                <text x="1538.02px" y="2864.42px" style="font-family:'OCRA', monospace;font-size:50px;fill:rgb(246,246,246);">8</text>
            </g>
            <g transform="matrix(1,0,0,1,-671.667,-262.101)">
                <text x="1446.51px" y="2865.12px" style="font-family:'OCRA', monospace;font-size:50px;fill:rgb(246,246,246);">7</text>
            </g>
            <g transform="matrix(1,0,0,1,-667.799,-264.078)">
                <text x="1348.14px" y="2867.1px" style="font-family:'OCRA', monospace;font-size:50px;fill:rgb(246,246,246);">6</text>
            </g>
            <g transform="matrix(1,0,0,1,-666.055,-269.187)">
                <text x="1252.55px" y="2872.21px" style="font-family:'OCRA', monospace;font-size:50px;fill:rgb(246,246,246);">5</text>
            </g>
            <g transform="matrix(1,0,0,1,-658.07,-271.982)">
                <text x="1150.56px" y="2875px" style="font-family:'OCRA', monospace;font-size:50px;fill:rgb(246,246,246);">4</text>
            </g>
            <g transform="matrix(1,0,0,1,-601.545,-611.196)">
                <g transform="matrix(1.15099,0,0,1.15099,-83.135,1380.35)">
                    <rect x="772.676" y="1456.07" width="40.716" height="46.141" style="fill:rgb(204,204,204);stroke:rgb(205,167,146);stroke-width:0.87px;"/>
                </g>
                <g transform="matrix(1.15099,0,0,0.93091,-83.135,1753.9)">
                    <rect x="772.676" y="1456.07" width="40.716" height="46.141" style="fill:rgb(246,246,246);"/>
                </g>
            </g>
            <g transform="matrix(-1,1.22465e-16,-1.22465e-16,-1,1245.42,5597.4)">
                <g transform="matrix(1.15099,0,0,1.15099,10.7121,1380.35)">
                    <rect x="772.676" y="1456.07" width="40.716" height="46.141" style="fill:rgb(204,204,204);stroke:rgb(205,167,146);stroke-width:0.87px;"/>
                </g>
                <g transform="matrix(1.15099,0,0,0.93091,10.7121,1753.9)">
                    <rect x="772.676" y="1456.07" width="40.716" height="46.141" style="fill:rgb(246,246,246);"/>
                </g>
            </g>
            <g transform="matrix(-1,1.22465e-16,-1.22465e-16,-1,1434.41,5597.4)">
                <g transform="matrix(1.15099,0,0,1.15099,105.204,1380.35)">
                    <rect x="772.676" y="1456.07" width="40.716" height="46.141" style="fill:rgb(204,204,204);stroke:rgb(205,167,146);stroke-width:0.87px;"/>
                </g>
                <g transform="matrix(1.15099,0,0,0.93091,105.204,1753.9)">
                    <rect x="772.676" y="1456.07" width="40.716" height="46.141" style="fill:rgb(246,246,246);"/>
                </g>
            </g>
            <g transform="matrix(1,0,0,1,-601.545,-611.196)">
                <g transform="matrix(1.15099,0,0,1.15099,199.339,1380.35)">
                    <rect x="772.676" y="1456.07" width="40.716" height="46.141" style="fill:rgb(204,204,204);stroke:rgb(205,167,146);stroke-width:0.87px;"/>
                </g>
                <g transform="matrix(1.15099,0,0,0.93091,199.339,1753.9)">
                    <rect x="772.676" y="1456.07" width="40.716" height="46.141" style="fill:rgb(246,246,246);"/>
                </g>
            </g>
            <g transform="matrix(-1,1.22465e-16,-1.22465e-16,-1,1434.23,5597.4)">
                <g transform="matrix(1.15099,0,0,1.15099,-83.135,1380.35)">
                    <rect x="772.676" y="1456.07" width="40.716" height="46.141" style="fill:rgb(204,204,204);stroke:rgb(205,167,146);stroke-width:0.87px;"/>
                </g>
                <g transform="matrix(1.15099,0,0,0.93091,-83.135,1753.9)">
                    <rect x="772.676" y="1456.07" width="40.716" height="46.141" style="fill:rgb(246,246,246);"/>
                </g>
            </g>
            <g transform="matrix(-1,-1.22465e-16,1.22465e-16,-1,1621.93,5597.4)">
                <g transform="matrix(1.15099,0,0,1.15099,10.7121,1380.35)">
                    <rect x="772.676" y="1456.07" width="40.716" height="46.141" style="fill:rgb(204,204,204);stroke:rgb(205,167,146);stroke-width:0.87px;"/>
                </g>
                <g transform="matrix(1.15099,0,0,0.93091,10.7121,1753.9)">
                    <rect x="772.676" y="1456.07" width="40.716" height="46.141" style="fill:rgb(246,246,246);"/>
                </g>
            </g>
            <g transform="matrix(1,0,0,1,-225.037,-611.196)">
                <g transform="matrix(1.15099,0,0,1.15099,105.204,1380.35)">
                    <rect x="772.676" y="1456.07" width="40.716" height="46.141" style="fill:rgb(204,204,204);stroke:rgb(205,167,146);stroke-width:0.87px;"/>
                </g>
                <g transform="matrix(1.15099,0,0,0.93091,105.204,1753.9)">
                    <rect x="772.676" y="1456.07" width="40.716" height="46.141" style="fill:rgb(246,246,246);"/>
                </g>
            </g>
            <g transform="matrix(1,0,0,1,-225.037,-611.196)">
                <g transform="matrix(1.15099,0,0,1.15099,199.339,1380.35)">
                    <rect x="772.676" y="1456.07" width="40.716" height="46.141" style="fill:rgb(204,204,204);stroke:rgb(205,167,146);stroke-width:0.87px;"/>
                </g>
                <g transform="matrix(1.15099,0,0,0.93091,199.339,1753.9)">
                    <rect x="772.676" y="1456.07" width="40.716" height="46.141" style="fill:rgb(246,246,246);"/>
                </g>
            </g>
            <g transform="matrix(1,0,0,1,-36.5662,-611.196)">
                <g transform="matrix(1.15099,0,0,1.15099,105.204,1380.35)">
                    <rect x="772.676" y="1456.07" width="40.716" height="46.141" style="fill:rgb(204,204,204);stroke:rgb(205,167,146);stroke-width:0.87px;"/>
                </g>
                <g transform="matrix(1.15099,0,0,0.93091,105.204,1753.9)">
                    <rect x="772.676" y="1456.07" width="40.716" height="46.141" style="fill:rgb(246,246,246);"/>
                </g>
            </g>
            <g transform="matrix(-1,-1.22465e-16,1.22465e-16,-1,2187.65,5597.4)">
                <g transform="matrix(1.15099,0,0,1.15099,199.339,1380.35)">
                    <rect x="772.676" y="1456.07" width="40.716" height="46.141" style="fill:rgb(204,204,204);stroke:rgb(205,167,146);stroke-width:0.87px;"/>
                </g>
                <g transform="matrix(1.15099,0,0,0.93091,199.339,1753.9)">
                    <rect x="772.676" y="1456.07" width="40.716" height="46.141" style="fill:rgb(246,246,246);"/>
                </g>
            </g>
            <g transform="matrix(1,0,0,1,-664.069,-282.322)">
                <text x="874.06px" y="2885.34px" style="font-family:'OCRA', monospace;font-size:50px;fill:rgb(246,246,246);">1</text>
            </g>
            <g transform="matrix(1,0,0,1,-702.754,-18.6776)">
                <text x="942.988px" y="2423.66px" style="font-family:'OCRA', monospace;font-size:50px;fill:rgb(246,246,246);">ON</text>
            </g>
            <g transform="matrix(1,0,0,1,-570.222,-282.322)">
                <text x="874.06px" y="2885.34px" style="font-family:'OCRA', monospace;font-size:50px;fill:rgb(246,246,246);">2</text>
            </g>
            <g transform="matrix(1,0,0,1,-664.033,-265.601)">
                <text x="1062.36px" y="2868.62px" style="font-family:'OCRA', monospace;font-size:50px;fill:rgb(246,246,246);">3</text>
            </g>
            <g transform="matrix(1,0,0,1,-562.677,1586.41)">
                <rect x="685.434" y="1324.86" width="1058.12" height="334.11" style="fill:rgb(64,64,64);"/>
            </g>
            <g transform="matrix(1,0,0,1,-668.228,322.427)">
                <text x="1725.67px" y="2865.81px" style="font-family:'OCRA', monospace;font-size:50px;fill:rgb(246,246,246);">0</text>
            </g>
            <g transform="matrix(1,0,0,1,-665.843,326.612)">
                <text x="1629.15px" y="2861.63px" style="font-family:'OCRA', monospace;font-size:50px;fill:rgb(246,246,246);">9</text>
            </g>
            <g transform="matrix(1,0,0,1,-669.049,323.817)">
                <text x="1538.02px" y="2864.42px" style="font-family:'OCRA', monospace;font-size:50px;fill:rgb(246,246,246);">8</text>
            </g>
            <g transform="matrix(1,0,0,1,-671.667,323.119)">
                <text x="1446.51px" y="2865.12px" style="font-family:'OCRA', monospace;font-size:50px;fill:rgb(246,246,246);">7</text>
            </g>
            <g transform="matrix(1,0,0,1,-667.799,321.142)">
                <text x="1348.14px" y="2867.1px" style="font-family:'OCRA', monospace;font-size:50px;fill:rgb(246,246,246);">6</text>
            </g>
            <g transform="matrix(1,0,0,1,-666.055,316.033)">
                <text x="1252.55px" y="2872.21px" style="font-family:'OCRA', monospace;font-size:50px;fill:rgb(246,246,246);">5</text>
            </g>
            <g transform="matrix(1,0,0,1,-658.07,313.238)">
                <text x="1150.56px" y="2875px" style="font-family:'OCRA', monospace;font-size:50px;fill:rgb(246,246,246);">4</text>
            </g>
            <g transform="matrix(1,0,0,1,-601.545,-25.9765)">
                <g transform="matrix(1.15099,0,0,1.15099,-83.135,1380.35)">
                    <rect x="772.676" y="1456.07" width="40.716" height="46.141" style="fill:rgb(204,204,204);stroke:rgb(205,167,146);stroke-width:0.87px;"/>
                </g>
                <g transform="matrix(1.15099,0,0,0.93091,-83.135,1753.9)">
                    <rect x="772.676" y="1456.07" width="40.716" height="46.141" style="fill:rgb(246,246,246);"/>
                </g>
            </g>
            <g transform="matrix(1,-2.44929e-16,2.44929e-16,1,-601.545,-25.9765)">
                <g transform="matrix(1.15099,0,0,1.15099,10.7121,1380.35)">
                    <rect x="772.676" y="1456.07" width="40.716" height="46.141" style="fill:rgb(204,204,204);stroke:rgb(205,167,146);stroke-width:0.87px;"/>
                </g>
                <g transform="matrix(1.15099,0,0,0.93091,10.7121,1753.9)">
                    <rect x="772.676" y="1456.07" width="40.716" height="46.141" style="fill:rgb(246,246,246);"/>
                </g>
            </g>
            <g transform="matrix(1,0,0,1,-601.545,-25.9765)">
                <g transform="matrix(1.15099,0,0,1.15099,105.204,1380.35)">
                    <rect x="772.676" y="1456.07" width="40.716" height="46.141" style="fill:rgb(204,204,204);stroke:rgb(205,167,146);stroke-width:0.87px;"/>
                </g>
                <g transform="matrix(1.15099,0,0,0.93091,105.204,1753.9)">
                    <rect x="772.676" y="1456.07" width="40.716" height="46.141" style="fill:rgb(246,246,246);"/>
                </g>
            </g>
            <g transform="matrix(-1,-1.22465e-16,1.22465e-16,-1,1622.67,6182.62)">
                <g transform="matrix(1.15099,0,0,1.15099,199.339,1380.35)">
                    <rect x="772.676" y="1456.07" width="40.716" height="46.141" style="fill:rgb(204,204,204);stroke:rgb(205,167,146);stroke-width:0.87px;"/>
                </g>
                <g transform="matrix(1.15099,0,0,0.93091,199.339,1753.9)">
                    <rect x="772.676" y="1456.07" width="40.716" height="46.141" style="fill:rgb(246,246,246);"/>
                </g>
            </g>
            <g transform="matrix(1,-2.44929e-16,2.44929e-16,1,-225.037,-25.9765)">
                <g transform="matrix(1.15099,0,0,1.15099,-83.135,1380.35)">
                    <rect x="772.676" y="1456.07" width="40.716" height="46.141" style="fill:rgb(204,204,204);stroke:rgb(205,167,146);stroke-width:0.87px;"/>
                </g>
                <g transform="matrix(1.15099,0,0,0.93091,-83.135,1753.9)">
                    <rect x="772.676" y="1456.07" width="40.716" height="46.141" style="fill:rgb(246,246,246);"/>
                </g>
            </g>
            <g transform="matrix(-1,-1.22465e-16,1.22465e-16,-1,1621.93,6182.62)">
                <g transform="matrix(1.15099,0,0,1.15099,10.7121,1380.35)">
                    <rect x="772.676" y="1456.07" width="40.716" height="46.141" style="fill:rgb(204,204,204);stroke:rgb(205,167,146);stroke-width:0.87px;"/>
                </g>
                <g transform="matrix(1.15099,0,0,0.93091,10.7121,1753.9)">
                    <rect x="772.676" y="1456.07" width="40.716" height="46.141" style="fill:rgb(246,246,246);"/>
                </g>
            </g>
            <g transform="matrix(1,0,0,1,-225.037,-25.9765)">
                <g transform="matrix(1.15099,0,0,1.15099,105.204,1380.35)">
                    <rect x="772.676" y="1456.07" width="40.716" height="46.141" style="fill:rgb(204,204,204);stroke:rgb(205,167,146);stroke-width:0.87px;"/>
                </g>
                <g transform="matrix(1.15099,0,0,0.93091,105.204,1753.9)">
                    <rect x="772.676" y="1456.07" width="40.716" height="46.141" style="fill:rgb(246,246,246);"/>
                </g>
            </g>
            <g transform="matrix(-1,-1.22465e-16,1.22465e-16,-1,1999.18,6182.62)">
                <g transform="matrix(1.15099,0,0,1.15099,199.339,1380.35)">
                    <rect x="772.676" y="1456.07" width="40.716" height="46.141" style="fill:rgb(204,204,204);stroke:rgb(205,167,146);stroke-width:0.87px;"/>
                </g>
                <g transform="matrix(1.15099,0,0,0.93091,199.339,1753.9)">
                    <rect x="772.676" y="1456.07" width="40.716" height="46.141" style="fill:rgb(246,246,246);"/>
                </g>
            </g>
            <g transform="matrix(1,0,0,1,-36.5662,-25.9765)">
                <g transform="matrix(1.15099,0,0,1.15099,105.204,1380.35)">
                    <rect x="772.676" y="1456.07" width="40.716" height="46.141" style="fill:rgb(204,204,204);stroke:rgb(205,167,146);stroke-width:0.87px;"/>
                </g>
                <g transform="matrix(1.15099,0,0,0.93091,105.204,1753.9)">
                    <rect x="772.676" y="1456.07" width="40.716" height="46.141" style="fill:rgb(246,246,246);"/>
                </g>
            </g>
            <g transform="matrix(1,2.44929e-16,-2.44929e-16,1,-36.5662,-25.9765)">
                <g transform="matrix(1.15099,0,0,1.15099,199.339,1380.35)">
                    <rect x="772.676" y="1456.07" width="40.716" height="46.141" style="fill:rgb(204,204,204);stroke:rgb(205,167,146);stroke-width:0.87px;"/>
                </g>
                <g transform="matrix(1.15099,0,0,0.93091,199.339,1753.9)">
                    <rect x="772.676" y="1456.07" width="40.716" height="46.141" style="fill:rgb(246,246,246);"/>
                </g>
            </g>
            <g transform="matrix(1,0,0,1,-664.069,302.897)">
                <text x="874.06px" y="2885.34px" style="font-family:'OCRA', monospace;font-size:50px;fill:rgb(246,246,246);">1</text>
            </g>
            <g transform="matrix(1,0,0,1,-702.754,566.542)">
                <text x="942.988px" y="2423.66px" style="font-family:'OCRA', monospace;font-size:50px;fill:rgb(246,246,246);">ON</text>
            </g>
            <g transform="matrix(1,0,0,1,-570.222,302.897)">
                <text x="874.06px" y="2885.34px" style="font-family:'OCRA', monospace;font-size:50px;fill:rgb(246,246,246);">2</text>
            </g>
            <g transform="matrix(1,0,0,1,-664.033,319.619)">
                <text x="1062.36px" y="2868.62px" style="font-family:'OCRA', monospace;font-size:50px;fill:rgb(246,246,246);">3</text>
            </g>
            <g transform="matrix(1,0,0,1,0.878545,0.878854)">
                <g transform="matrix(1,0,0,1,-569.79,1572.95)">
                    <path d="M767.43,1671.55L826.574,1671.55L826.574,1712.74L814.582,1737.37L814.582,1753.94L779.245,1753.94L779.245,1737.37L767.43,1713.49L767.43,1671.55Z" style="fill:rgb(196,173,82);"/>
                </g>
                <g transform="matrix(1,0,0,1,-475.628,1572.95)">
                    <path d="M767.43,1671.55L826.574,1671.55L826.574,1712.74L814.582,1737.37L814.582,1753.94L779.245,1753.94L779.245,1737.37L767.43,1713.49L767.43,1671.55Z" style="fill:rgb(196,173,82);"/>
                </g>
                <g transform="matrix(1,0,0,1,-381.467,1572.95)">
                    <path d="M767.43,1671.55L826.574,1671.55L826.574,1712.74L814.582,1737.37L814.582,1753.94L779.245,1753.94L779.245,1737.37L767.43,1713.49L767.43,1671.55Z" style="fill:rgb(196,173,82);"/>
                </g>
                <g transform="matrix(1,0,0,1,-287.306,1572.95)">
                    <path d="M767.43,1671.55L826.574,1671.55L826.574,1712.74L814.582,1737.37L814.582,1753.94L779.245,1753.94L779.245,1737.37L767.43,1713.49L767.43,1671.55Z" style="fill:rgb(196,173,82);"/>
                </g>
                <g transform="matrix(1,0,0,1,-193.144,1572.95)">
                    <path d="M767.43,1671.55L826.574,1671.55L826.574,1712.74L814.582,1737.37L814.582,1753.94L779.245,1753.94L779.245,1737.37L767.43,1713.49L767.43,1671.55Z" style="fill:rgb(196,173,82);"/>
                </g>
                <g transform="matrix(1,0,0,1,-98.9829,1572.95)">
                    <path d="M767.43,1671.55L826.574,1671.55L826.574,1712.74L814.582,1737.37L814.582,1753.94L779.245,1753.94L779.245,1737.37L767.43,1713.49L767.43,1671.55Z" style="fill:rgb(196,173,82);"/>
                </g>
                <g transform="matrix(1,0,0,1,-4.82152,1572.95)">
                    <path d="M767.43,1671.55L826.574,1671.55L826.574,1712.74L814.582,1737.37L814.582,1753.94L779.245,1753.94L779.245,1737.37L767.43,1713.49L767.43,1671.55Z" style="fill:rgb(196,173,82);"/>
                </g>
                <g transform="matrix(1,0,0,1,89.3398,1572.95)">
                    <path d="M767.43,1671.55L826.574,1671.55L826.574,1712.74L814.582,1737.37L814.582,1753.94L779.245,1753.94L779.245,1737.37L767.43,1713.49L767.43,1671.55Z" style="fill:rgb(196,173,82);"/>
                </g>
                <g transform="matrix(1,0,0,1,183.501,1572.95)">
                    <path d="M767.43,1671.55L826.574,1671.55L826.574,1712.74L814.582,1737.37L814.582,1753.94L779.245,1753.94L779.245,1737.37L767.43,1713.49L767.43,1671.55Z" style="fill:rgb(196,173,82);"/>
                </g>
                <g transform="matrix(1,0,0,1,277.662,1572.95)">
                    <path d="M767.43,1671.55L826.574,1671.55L826.574,1712.74L814.582,1737.37L814.582,1753.94L779.245,1753.94L779.245,1737.37L767.43,1713.49L767.43,1671.55Z" style="fill:rgb(196,173,82);"/>
                </g>
            </g>
            <g transform="matrix(-1,1.22465e-16,-1.22465e-16,-1,1302.76,6157.04)">
                <g transform="matrix(1,0,0,1,-569.79,1572.95)">
                    <path d="M767.43,1671.55L826.574,1671.55L826.574,1712.74L814.582,1737.37L814.582,1753.94L779.245,1753.94L779.245,1737.37L767.43,1713.49L767.43,1671.55Z" style="fill:rgb(196,173,82);"/>
                </g>
                <g transform="matrix(1,0,0,1,-475.628,1572.95)">
                    <path d="M767.43,1671.55L826.574,1671.55L826.574,1712.74L814.582,1737.37L814.582,1753.94L779.245,1753.94L779.245,1737.37L767.43,1713.49L767.43,1671.55Z" style="fill:rgb(196,173,82);"/>
                </g>
                <g transform="matrix(1,0,0,1,-381.467,1572.95)">
                    <path d="M767.43,1671.55L826.574,1671.55L826.574,1712.74L814.582,1737.37L814.582,1753.94L779.245,1753.94L779.245,1737.37L767.43,1713.49L767.43,1671.55Z" style="fill:rgb(196,173,82);"/>
                </g>
                <g transform="matrix(1,0,0,1,-287.306,1572.95)">
                    <path d="M767.43,1671.55L826.574,1671.55L826.574,1712.74L814.582,1737.37L814.582,1753.94L779.245,1753.94L779.245,1737.37L767.43,1713.49L767.43,1671.55Z" style="fill:rgb(196,173,82);"/>
                </g>
                <g transform="matrix(1,0,0,1,-193.144,1572.95)">
                    <path d="M767.43,1671.55L826.574,1671.55L826.574,1712.74L814.582,1737.37L814.582,1753.94L779.245,1753.94L779.245,1737.37L767.43,1713.49L767.43,1671.55Z" style="fill:rgb(196,173,82);"/>
                </g>
                <g transform="matrix(1,0,0,1,-98.9829,1572.95)">
                    <path d="M767.43,1671.55L826.574,1671.55L826.574,1712.74L814.582,1737.37L814.582,1753.94L779.245,1753.94L779.245,1737.37L767.43,1713.49L767.43,1671.55Z" style="fill:rgb(196,173,82);"/>
                </g>
                <g transform="matrix(1,0,0,1,-4.82152,1572.95)">
                    <path d="M767.43,1671.55L826.574,1671.55L826.574,1712.74L814.582,1737.37L814.582,1753.94L779.245,1753.94L779.245,1737.37L767.43,1713.49L767.43,1671.55Z" style="fill:rgb(196,173,82);"/>
                </g>
                <g transform="matrix(1,0,0,1,89.3398,1572.95)">
                    <path d="M767.43,1671.55L826.574,1671.55L826.574,1712.74L814.582,1737.37L814.582,1753.94L779.245,1753.94L779.245,1737.37L767.43,1713.49L767.43,1671.55Z" style="fill:rgb(196,173,82);"/>
                </g>
                <g transform="matrix(1,0,0,1,183.501,1572.95)">
                    <path d="M767.43,1671.55L826.574,1671.55L826.574,1712.74L814.582,1737.37L814.582,1753.94L779.245,1753.94L779.245,1737.37L767.43,1713.49L767.43,1671.55Z" style="fill:rgb(196,173,82);"/>
                </g>
                <g transform="matrix(1,0,0,1,277.662,1572.95)">
                    <path d="M767.43,1671.55L826.574,1671.55L826.574,1712.74L814.582,1737.37L814.582,1753.94L779.245,1753.94L779.245,1737.37L767.43,1713.49L767.43,1671.55Z" style="fill:rgb(196,173,82);"/>
                </g>
            </g>
            <g transform="matrix(-1,1.22465e-16,-1.22465e-16,-1,1302.76,6157.04)">
                <g transform="matrix(1,0,0,1,-569.79,1572.95)">
                    <path d="M767.43,1671.55L826.574,1671.55L826.574,1712.74L814.582,1737.37L814.582,1753.94L779.245,1753.94L779.245,1737.37L767.43,1713.49L767.43,1671.55Z" style="fill:rgb(196,173,82);"/>
                </g>
                <g transform="matrix(1,0,0,1,-475.628,1572.95)">
                    <path d="M767.43,1671.55L826.574,1671.55L826.574,1712.74L814.582,1737.37L814.582,1753.94L779.245,1753.94L779.245,1737.37L767.43,1713.49L767.43,1671.55Z" style="fill:rgb(196,173,82);"/>
                </g>
                <g transform="matrix(1,0,0,1,-381.467,1572.95)">
                    <path d="M767.43,1671.55L826.574,1671.55L826.574,1712.74L814.582,1737.37L814.582,1753.94L779.245,1753.94L779.245,1737.37L767.43,1713.49L767.43,1671.55Z" style="fill:rgb(196,173,82);"/>
                </g>
                <g transform="matrix(1,0,0,1,-287.306,1572.95)">
                    <path d="M767.43,1671.55L826.574,1671.55L826.574,1712.74L814.582,1737.37L814.582,1753.94L779.245,1753.94L779.245,1737.37L767.43,1713.49L767.43,1671.55Z" style="fill:rgb(196,173,82);"/>
                </g>
                <g transform="matrix(1,0,0,1,-193.144,1572.95)">
                    <path d="M767.43,1671.55L826.574,1671.55L826.574,1712.74L814.582,1737.37L814.582,1753.94L779.245,1753.94L779.245,1737.37L767.43,1713.49L767.43,1671.55Z" style="fill:rgb(196,173,82);"/>
                </g>
                <g transform="matrix(1,0,0,1,-98.9829,1572.95)">
                    <path d="M767.43,1671.55L826.574,1671.55L826.574,1712.74L814.582,1737.37L814.582,1753.94L779.245,1753.94L779.245,1737.37L767.43,1713.49L767.43,1671.55Z" style="fill:rgb(196,173,82);"/>
                </g>
                <g transform="matrix(1,0,0,1,-4.82152,1572.95)">
                    <path d="M767.43,1671.55L826.574,1671.55L826.574,1712.74L814.582,1737.37L814.582,1753.94L779.245,1753.94L779.245,1737.37L767.43,1713.49L767.43,1671.55Z" style="fill:rgb(196,173,82);"/>
                </g>
                <g transform="matrix(1,0,0,1,89.3398,1572.95)">
                    <path d="M767.43,1671.55L826.574,1671.55L826.574,1712.74L814.582,1737.37L814.582,1753.94L779.245,1753.94L779.245,1737.37L767.43,1713.49L767.43,1671.55Z" style="fill:rgb(196,173,82);"/>
                </g>
                <g transform="matrix(1,0,0,1,183.501,1572.95)">
                    <path d="M767.43,1671.55L826.574,1671.55L826.574,1712.74L814.582,1737.37L814.582,1753.94L779.245,1753.94L779.245,1737.37L767.43,1713.49L767.43,1671.55Z" style="fill:rgb(196,173,82);"/>
                </g>
                <g transform="matrix(1,0,0,1,277.662,1572.95)">
                    <path d="M767.43,1671.55L826.574,1671.55L826.574,1712.74L814.582,1737.37L814.582,1753.94L779.245,1753.94L779.245,1737.37L767.43,1713.49L767.43,1671.55Z" style="fill:rgb(196,173,82);"/>
                </g>
            </g>
            <g transform="matrix(1,0,0,1,0.878545,-584.341)">
                <g transform="matrix(1,0,0,1,-569.79,1572.95)">
                    <path d="M767.43,1671.55L826.574,1671.55L826.574,1712.74L814.582,1737.37L814.582,1753.94L779.245,1753.94L779.245,1737.37L767.43,1713.49L767.43,1671.55Z" style="fill:rgb(196,173,82);"/>
                </g>
                <g transform="matrix(1,0,0,1,-475.628,1572.95)">
                    <path d="M767.43,1671.55L826.574,1671.55L826.574,1712.74L814.582,1737.37L814.582,1753.94L779.245,1753.94L779.245,1737.37L767.43,1713.49L767.43,1671.55Z" style="fill:rgb(196,173,82);"/>
                </g>
                <g transform="matrix(1,0,0,1,-381.467,1572.95)">
                    <path d="M767.43,1671.55L826.574,1671.55L826.574,1712.74L814.582,1737.37L814.582,1753.94L779.245,1753.94L779.245,1737.37L767.43,1713.49L767.43,1671.55Z" style="fill:rgb(196,173,82);"/>
                </g>
                <g transform="matrix(1,0,0,1,-287.306,1572.95)">
                    <path d="M767.43,1671.55L826.574,1671.55L826.574,1712.74L814.582,1737.37L814.582,1753.94L779.245,1753.94L779.245,1737.37L767.43,1713.49L767.43,1671.55Z" style="fill:rgb(196,173,82);"/>
                </g>
                <g transform="matrix(1,0,0,1,-193.144,1572.95)">
                    <path d="M767.43,1671.55L826.574,1671.55L826.574,1712.74L814.582,1737.37L814.582,1753.94L779.245,1753.94L779.245,1737.37L767.43,1713.49L767.43,1671.55Z" style="fill:rgb(196,173,82);"/>
                </g>
                <g transform="matrix(1,0,0,1,-98.9829,1572.95)">
                    <path d="M767.43,1671.55L826.574,1671.55L826.574,1712.74L814.582,1737.37L814.582,1753.94L779.245,1753.94L779.245,1737.37L767.43,1713.49L767.43,1671.55Z" style="fill:rgb(196,173,82);"/>
                </g>
                <g transform="matrix(1,0,0,1,-4.82152,1572.95)">
                    <path d="M767.43,1671.55L826.574,1671.55L826.574,1712.74L814.582,1737.37L814.582,1753.94L779.245,1753.94L779.245,1737.37L767.43,1713.49L767.43,1671.55Z" style="fill:rgb(196,173,82);"/>
                </g>
                <g transform="matrix(1,0,0,1,89.3398,1572.95)">
                    <path d="M767.43,1671.55L826.574,1671.55L826.574,1712.74L814.582,1737.37L814.582,1753.94L779.245,1753.94L779.245,1737.37L767.43,1713.49L767.43,1671.55Z" style="fill:rgb(196,173,82);"/>
                </g>
                <g transform="matrix(1,0,0,1,183.501,1572.95)">
                    <path d="M767.43,1671.55L826.574,1671.55L826.574,1712.74L814.582,1737.37L814.582,1753.94L779.245,1753.94L779.245,1737.37L767.43,1713.49L767.43,1671.55Z" style="fill:rgb(196,173,82);"/>
                </g>
                <g transform="matrix(1,0,0,1,277.662,1572.95)">
                    <path d="M767.43,1671.55L826.574,1671.55L826.574,1712.74L814.582,1737.37L814.582,1753.94L779.245,1753.94L779.245,1737.37L767.43,1713.49L767.43,1671.55Z" style="fill:rgb(196,173,82);"/>
                </g>
            </g>
            <g transform="matrix(-1,1.22465e-16,-1.22465e-16,-1,1302.76,5570.54)">
                <g transform="matrix(1,0,0,1,-569.79,1572.95)">
                    <path d="M767.43,1671.55L826.574,1671.55L826.574,1712.74L814.582,1737.37L814.582,1753.94L779.245,1753.94L779.245,1737.37L767.43,1713.49L767.43,1671.55Z" style="fill:rgb(196,173,82);"/>
                </g>
                <g transform="matrix(1,0,0,1,-475.628,1572.95)">
                    <path d="M767.43,1671.55L826.574,1671.55L826.574,1712.74L814.582,1737.37L814.582,1753.94L779.245,1753.94L779.245,1737.37L767.43,1713.49L767.43,1671.55Z" style="fill:rgb(196,173,82);"/>
                </g>
                <g transform="matrix(1,0,0,1,-381.467,1572.95)">
                    <path d="M767.43,1671.55L826.574,1671.55L826.574,1712.74L814.582,1737.37L814.582,1753.94L779.245,1753.94L779.245,1737.37L767.43,1713.49L767.43,1671.55Z" style="fill:rgb(196,173,82);"/>
                </g>
                <g transform="matrix(1,0,0,1,-287.306,1572.95)">
                    <path d="M767.43,1671.55L826.574,1671.55L826.574,1712.74L814.582,1737.37L814.582,1753.94L779.245,1753.94L779.245,1737.37L767.43,1713.49L767.43,1671.55Z" style="fill:rgb(196,173,82);"/>
                </g>
                <g transform="matrix(1,0,0,1,-193.144,1572.95)">
                    <path d="M767.43,1671.55L826.574,1671.55L826.574,1712.74L814.582,1737.37L814.582,1753.94L779.245,1753.94L779.245,1737.37L767.43,1713.49L767.43,1671.55Z" style="fill:rgb(196,173,82);"/>
                </g>
                <g transform="matrix(1,0,0,1,-98.9829,1572.95)">
                    <path d="M767.43,1671.55L826.574,1671.55L826.574,1712.74L814.582,1737.37L814.582,1753.94L779.245,1753.94L779.245,1737.37L767.43,1713.49L767.43,1671.55Z" style="fill:rgb(196,173,82);"/>
                </g>
                <g transform="matrix(1,0,0,1,-4.82152,1572.95)">
                    <path d="M767.43,1671.55L826.574,1671.55L826.574,1712.74L814.582,1737.37L814.582,1753.94L779.245,1753.94L779.245,1737.37L767.43,1713.49L767.43,1671.55Z" style="fill:rgb(196,173,82);"/>
                </g>
                <g transform="matrix(1,0,0,1,89.3398,1572.95)">
                    <path d="M767.43,1671.55L826.574,1671.55L826.574,1712.74L814.582,1737.37L814.582,1753.94L779.245,1753.94L779.245,1737.37L767.43,1713.49L767.43,1671.55Z" style="fill:rgb(196,173,82);"/>
                </g>
                <g transform="matrix(1,0,0,1,183.501,1572.95)">
                    <path d="M767.43,1671.55L826.574,1671.55L826.574,1712.74L814.582,1737.37L814.582,1753.94L779.245,1753.94L779.245,1737.37L767.43,1713.49L767.43,1671.55Z" style="fill:rgb(196,173,82);"/>
                </g>
                <g transform="matrix(1,0,0,1,277.662,1572.95)">
                    <path d="M767.43,1671.55L826.574,1671.55L826.574,1712.74L814.582,1737.37L814.582,1753.94L779.245,1753.94L779.245,1737.37L767.43,1713.49L767.43,1671.55Z" style="fill:rgb(196,173,82);"/>
                </g>
            </g>
        </g>
    </g>
</svg>
